{
	"asset":{
		"generator":"Khronos glTF Blender I/O v3.6.28",
		"version":"2.0"
	},
	"extensionsUsed":[
		"KHR_materials_specular",
		"KHR_materials_ior",
		"KHR_lights_punctual"
	],
	"extensionsRequired":[
		"KHR_lights_punctual"
	],
	"extensions":{
		"KHR_lights_punctual":{
			"lights":[
				{
					"color":[
						1,
						1,
						1
					],
					"intensity":1,
					"spot":{
						"innerConeAngle":0.3337942263919169,
						"outerConeAngle":0.39269909262657166
					},
					"type":"spot",
					"name":"Spot"
				},
				{
					"color":[
						1,
						1,
						1
					],
					"intensity":1,
					"type":"directional",
					"name":"Sun"
				}
			]
		}
	},
	"scene":0,
	"scenes":[
		{
			"extras":{
				"vs":{
					"export_list":[
						{
							"name":"Collection.dmx",
							"collection":{
								"name":"Collection",
								"type":"Collection"
							},
							"ob_type":"COLLECTION",
							"icon":"GROUP"
						},
						{
							"name":"eau.dmx",
							"collection":{
								"name":"eau",
								"type":"Collection"
							},
							"ob_type":"COLLECTION",
							"icon":"GROUP"
						}
					]
				},
				"smc_ob_data":[
					{
						"ob":{
							"name":"cascade",
							"type":"Object"
						},
						"ob_id":0,
						"type":0,
						"used":1
					},
					{
						"ob":{
							"name":"cascade",
							"type":"Object"
						},
						"ob_id":0,
						"mat":{
							"name":"material_atlas_00003_1",
							"type":"Material"
						},
						"type":1,
						"used":1,
						"layer":1
					},
					{
						"type":2
					},
					{
						"ob":{
							"name":"riviere",
							"type":"Object"
						},
						"ob_id":1,
						"type":0,
						"used":0
					},
					{
						"ob":{
							"name":"riviere",
							"type":"Object"
						},
						"ob_id":1,
						"mat":{
							"name":"river",
							"type":"Material"
						},
						"type":1,
						"used":0,
						"layer":1
					},
					{
						"type":2
					},
					{
						"ob":{
							"name":"MOUSSE",
							"type":"Object"
						},
						"ob_id":2,
						"type":0,
						"used":0
					},
					{
						"ob":{
							"name":"MOUSSE",
							"type":"Object"
						},
						"ob_id":2,
						"mat":{
							"name":"mousse",
							"type":"Material"
						},
						"type":1,
						"used":0,
						"layer":1
					},
					{
						"type":2
					},
					{
						"ob":{
							"name":"for\u00eat",
							"type":"Object"
						},
						"ob_id":3,
						"type":0,
						"used":0
					},
					{
						"ob":{
							"name":"for\u00eat",
							"type":"Object"
						},
						"ob_id":3,
						"mat":{
							"name":"material_atlas_00002_1",
							"type":"Material"
						},
						"type":1,
						"used":0,
						"layer":1
					},
					{
						"type":2
					}
				],
				"smc_save_path":"A:\\code\\Web\\threejs\\candid\\TestCandid\\modeling\\scene\\foretscene\\The Waterfall of Truth\\",
				"smc_ob_data_id":14
			},
			"name":"Scene",
			"nodes":[
				0,
				1,
				2,
				3,
				4,
				5,
				6,
				7,
				8
			]
		}
	],
	"nodes":[
		{
			"mesh":0,
			"name":"for\u00eat"
		},
		{
			"mesh":1,
			"name":"cascade"
		},
		{
			"mesh":2,
			"name":"riviere"
		},
		{
			"mesh":3,
			"name":"MOUSSE"
		},
		{
			"extensions":{
				"KHR_lights_punctual":{
					"light":0
				}
			},
			"name":"Spot",
			"rotation":[
				-0.7507387399673462,
				-0.0225694477558136,
				0.11203692108392715,
				0.6506379842758179
			],
			"translation":[
				6.550307750701904,
				11.909957885742188,
				-0.8679628372192383
			]
		},
		{
			"extensions":{
				"KHR_lights_punctual":{
					"light":1
				}
			},
			"name":"Sun",
			"rotation":[
				-0.7071068286895752,
				0,
				0,
				0.7071068286895752
			],
			"translation":[
				0,
				9.663162231445312,
				0
			]
		},
		{
			"camera":0,
			"name":"Camera",
			"rotation":[
				-0.04258544370532036,
				0.21623362600803375,
				0.009440965950489044,
				0.9753668308258057
			],
			"translation":[
				5.844974517822266,
				2.0041751861572266,
				11.873162269592285
			]
		},
		{
			"camera":1,
			"name":"Camera.001",
			"rotation":[
				-0.03869574889540672,
				0.46109479665756226,
				0.02013183757662773,
				0.8862781524658203
			],
			"translation":[
				9.606585502624512,
				2.042073965072632,
				7.1612701416015625
			]
		},
		{
			"camera":2,
			"name":"Camera.002",
			"rotation":[
				-0.015666818246245384,
				-0.9834445714950562,
				-0.14697673916816711,
				0.10482916235923767
			],
			"translation":[
				-2.04085636138916,
				7.442634582519531,
				-7.999235153198242
			]
		}
	],
	"cameras":[
		{
			"name":"Camera",
			"perspective":{
				"aspectRatio":1.7777777777777777,
				"yfov":0.39959652046304894,
				"zfar":1000,
				"znear":0.10000000149011612
			},
			"type":"perspective"
		},
		{
			"name":"Camera.002",
			"perspective":{
				"aspectRatio":1.7777777777777777,
				"yfov":0.39959652046304894,
				"zfar":1000,
				"znear":0.10000000149011612
			},
			"type":"perspective"
		},
		{
			"name":"Camera.003",
			"perspective":{
				"aspectRatio":1.7777777777777777,
				"yfov":0.39959652046304894,
				"zfar":1000,
				"znear":0.10000000149011612
			},
			"type":"perspective"
		}
	],
	"materials":[
		{
			"alphaCutoff":0.5,
			"alphaMode":"MASK",
			"name":"material_atlas_00002_1",
			"pbrMetallicRoughness":{
				"baseColorTexture":{
					"index":0
				},
				"metallicFactor":0,
				"roughnessFactor":0.5
			}
		},
		{
			"alphaCutoff":0.5,
			"alphaMode":"MASK",
			"name":"material_atlas_00003_1",
			"pbrMetallicRoughness":{
				"baseColorTexture":{
					"index":1
				},
				"metallicFactor":0,
				"roughnessFactor":0.5
			}
		},
		{
			"alphaMode":"BLEND",
			"doubleSided":true,
			"emissiveFactor":[
				0.01038549893612617,
				0.1547374969668045,
				0.14728118665173184
			],
			"extensions":{
				"KHR_materials_specular":{
					"specularColorFactor":[
						2.371357614441398,
						2.371357614441398,
						2.371357614441398
					]
				},
				"KHR_materials_ior":{
					"ior":1.4500000476837158
				}
			},
			"extras":{
				"mmd_material":{
					"name_j":"Material39",
					"name_e":"",
					"ambient_color":[
						0.24313730001449585,
						0.24313730001449585,
						0.24313730001449585
					],
					"diffuse_color":[
						0.3568628132343292,
						0.3568628132343292,
						0.3568628132343292
					],
					"alpha":1.0,
					"specular_color":[
						0.0,
						0.0,
						0.0
					],
					"shininess":92.1568603515625,
					"is_double_sided":1,
					"enabled_drop_shadow":0,
					"enabled_self_shadow_map":1,
					"enabled_self_shadow":0,
					"enabled_toon_edge":0,
					"edge_color":[
						0.0,
						0.0,
						0.0,
						1.0
					],
					"edge_weight":4.0,
					"comment":"",
					"is_shared_toon_texture":0,
					"sphere_texture_type":1
				}
			},
			"name":"river",
			"pbrMetallicRoughness":{
				"baseColorTexture":{
					"index":2
				},
				"roughnessFactor":0.5
			}
		},
		{
			"alphaMode":"BLEND",
			"doubleSided":true,
			"extensions":{
				"KHR_materials_specular":{
					"specularColorFactor":[
						1.6815080777759979,
						1.6815080777759979,
						1.6815080777759979
					]
				},
				"KHR_materials_ior":{
					"ior":1.4500000476837158
				}
			},
			"extras":{
				"mmd_material":{
					"name_j":"Material39",
					"name_e":"",
					"ambient_color":[
						0.24313730001449585,
						0.24313730001449585,
						0.24313730001449585
					],
					"diffuse_color":[
						0.3568628132343292,
						0.3568628132343292,
						0.3568628132343292
					],
					"alpha":1.0,
					"specular_color":[
						0.0,
						0.0,
						0.0
					],
					"shininess":92.1568603515625,
					"is_double_sided":1,
					"enabled_drop_shadow":0,
					"enabled_self_shadow_map":1,
					"enabled_self_shadow":0,
					"enabled_toon_edge":0,
					"edge_color":[
						0.0,
						0.0,
						0.0,
						1.0
					],
					"edge_weight":4.0,
					"comment":"",
					"is_shared_toon_texture":0,
					"sphere_texture_type":1
				}
			},
			"name":"mousse",
			"pbrMetallicRoughness":{
				"metallicFactor":0,
				"roughnessFactor":0.5
			}
		}
	],
	"meshes":[
		{
			"name":"The Waterfall of Truth",
			"primitives":[
				{
					"attributes":{
						"POSITION":0,
						"NORMAL":1,
						"TEXCOORD_0":2
					},
					"indices":3,
					"material":0
				}
			]
		},
		{
			"name":"The Waterfall of Truth.001",
			"primitives":[
				{
					"attributes":{
						"POSITION":4,
						"NORMAL":5,
						"TEXCOORD_0":6
					},
					"indices":7,
					"material":1
				}
			]
		},
		{
			"name":"The Waterfall of Truth.002",
			"primitives":[
				{
					"attributes":{
						"POSITION":8,
						"NORMAL":9,
						"TEXCOORD_0":10
					},
					"indices":11,
					"material":2
				}
			]
		},
		{
			"name":"The Waterfall of Truth.008",
			"primitives":[
				{
					"attributes":{
						"POSITION":12,
						"NORMAL":13,
						"TEXCOORD_0":14
					},
					"indices":11,
					"material":3
				}
			]
		}
	],
	"textures":[
		{
			"sampler":0,
			"source":0
		},
		{
			"sampler":0,
			"source":1
		},
		{
			"sampler":0,
			"source":2
		}
	],
	"images":[
		{
			"mimeType":"image/png",
			"name":"Atlas_00002",
			"uri":"Atlas_00002.png"
		},
		{
			"mimeType":"image/png",
			"name":"Atlas_00003",
			"uri":"Atlas_00003.png"
		},
		{
			"mimeType":"image/png",
			"name":"water",
			"uri":"water.png"
		}
	],
	"accessors":[
		{
			"bufferView":0,
			"componentType":5126,
			"count":370980,
			"max":[
				113.75431060791016,
				46.7066650390625,
				120.76846313476562
			],
			"min":[
				-139.4855194091797,
				-10.500401496887207,
				-106.74018096923828
			],
			"type":"VEC3"
		},
		{
			"bufferView":1,
			"componentType":5126,
			"count":370980,
			"type":"VEC3"
		},
		{
			"bufferView":2,
			"componentType":5126,
			"count":370980,
			"type":"VEC2"
		},
		{
			"bufferView":3,
			"componentType":5125,
			"count":370980,
			"type":"SCALAR"
		},
		{
			"bufferView":4,
			"componentType":5126,
			"count":6153,
			"max":[
				8.936168670654297,
				33.24660873413086,
				23.610408782958984
			],
			"min":[
				-10.05325984954834,
				-0.08750399202108383,
				-22.764408111572266
			],
			"type":"VEC3"
		},
		{
			"bufferView":5,
			"componentType":5126,
			"count":6153,
			"type":"VEC3"
		},
		{
			"bufferView":6,
			"componentType":5126,
			"count":6153,
			"type":"VEC2"
		},
		{
			"bufferView":7,
			"componentType":5123,
			"count":6153,
			"type":"SCALAR"
		},
		{
			"bufferView":8,
			"componentType":5126,
			"count":3666,
			"max":[
				9.844130516052246,
				2.6251003742218018,
				90.1423110961914
			],
			"min":[
				-135.63015747070312,
				-0.08750399202108383,
				-14.861709594726562
			],
			"type":"VEC3"
		},
		{
			"bufferView":9,
			"componentType":5126,
			"count":3666,
			"type":"VEC3"
		},
		{
			"bufferView":10,
			"componentType":5126,
			"count":3666,
			"type":"VEC2"
		},
		{
			"bufferView":11,
			"componentType":5123,
			"count":3666,
			"type":"SCALAR"
		},
		{
			"bufferView":12,
			"componentType":5126,
			"count":3666,
			"max":[
				9.844130516052246,
				2.6251003742218018,
				90.1423110961914
			],
			"min":[
				-135.63015747070312,
				-0.08750399202108383,
				-14.861709594726562
			],
			"type":"VEC3"
		},
		{
			"bufferView":13,
			"componentType":5126,
			"count":3666,
			"type":"VEC3"
		},
		{
			"bufferView":14,
			"componentType":5126,
			"count":3666,
			"type":"VEC2"
		}
	],
	"bufferViews":[
		{
			"buffer":0,
			"byteLength":4451760,
			"byteOffset":0,
			"target":34962
		},
		{
			"buffer":0,
			"byteLength":4451760,
			"byteOffset":4451760,
			"target":34962
		},
		{
			"buffer":0,
			"byteLength":2967840,
			"byteOffset":8903520,
			"target":34962
		},
		{
			"buffer":0,
			"byteLength":1483920,
			"byteOffset":11871360,
			"target":34963
		},
		{
			"buffer":0,
			"byteLength":73836,
			"byteOffset":13355280,
			"target":34962
		},
		{
			"buffer":0,
			"byteLength":73836,
			"byteOffset":13429116,
			"target":34962
		},
		{
			"buffer":0,
			"byteLength":49224,
			"byteOffset":13502952,
			"target":34962
		},
		{
			"buffer":0,
			"byteLength":12306,
			"byteOffset":13552176,
			"target":34963
		},
		{
			"buffer":0,
			"byteLength":43992,
			"byteOffset":13564484,
			"target":34962
		},
		{
			"buffer":0,
			"byteLength":43992,
			"byteOffset":13608476,
			"target":34962
		},
		{
			"buffer":0,
			"byteLength":29328,
			"byteOffset":13652468,
			"target":34962
		},
		{
			"buffer":0,
			"byteLength":7332,
			"byteOffset":13681796,
			"target":34963
		},
		{
			"buffer":0,
			"byteLength":43992,
			"byteOffset":13689128,
			"target":34962
		},
		{
			"buffer":0,
			"byteLength":43992,
			"byteOffset":13733120,
			"target":34962
		},
		{
			"buffer":0,
			"byteLength":29328,
			"byteOffset":13777112,
			"target":34962
		}
	],
	"samplers":[
		{
			"magFilter":9729,
			"minFilter":9987
		}
	],
	"buffers":[
		{
			"byteLength":13806440,
			"uri":"scene.bin"
		}
	]
}
