{
	"asset":{
		"generator":"Khronos glTF Blender I/O v3.6.28",
		"version":"2.0"
	},
	"extensionsUsed":[
		"KHR_lights_punctual"
	],
	"extensionsRequired":[
		"KHR_lights_punctual"
	],
	"extensions":{
		"KHR_lights_punctual":{
			"lights":[
				{
					"color":[
						0.7268552780151367,
						0.8848174810409546,
						1
					],
					"intensity":1.399999976158142,
					"type":"directional",
					"name":"Sun"
				},
				{
					"color":[
						0.7268552780151367,
						0.8848174810409546,
						1
					],
					"intensity":1.399999976158142,
					"type":"directional",
					"name":"Sun.001"
				},
				{
					"color":[
						0.7268552780151367,
						0.8848174810409546,
						1
					],
					"intensity":1.399999976158142,
					"type":"directional",
					"name":"Sun.002"
				}
			]
		}
	},
	"scene":0,
	"scenes":[
		{
			"extras":{
				"vs":{
					"export_list":[
						{
							"name":"xps.dmx",
							"collection":{
								"name":"xps",
								"type":"Collection"
							},
							"ob_type":"COLLECTION",
							"icon":"GROUP"
						}
					]
				},
				"smc_ob_data":[
					{
						"ob":{
							"name":"7_universal-obj-801c (27)_1_0_0",
							"type":"Object"
						},
						"ob_id":0,
						"type":0,
						"used":1
					},
					{
						"ob":{
							"name":"7_universal-obj-801c (27)_1_0_0",
							"type":"Object"
						},
						"ob_id":0,
						"mat":{
							"name":"material_atlas_00001",
							"type":"Material"
						},
						"type":1,
						"used":1,
						"layer":1
					},
					{
						"type":2
					},
					{
						"ob":{
							"name":"5_-guitar.1_1_0_0",
							"type":"Object"
						},
						"ob_id":1,
						"type":0,
						"used":1
					},
					{
						"ob":{
							"name":"5_-guitar.1_1_0_0",
							"type":"Object"
						},
						"ob_id":1,
						"mat":{
							"name":"material_atlas_00001",
							"type":"Material"
						},
						"type":1,
						"used":1,
						"layer":1
					},
					{
						"type":2
					},
					{
						"ob":{
							"name":"5_-violinRhand_1_0_0",
							"type":"Object"
						},
						"ob_id":2,
						"type":0,
						"used":1
					},
					{
						"ob":{
							"name":"5_-violinRhand_1_0_0",
							"type":"Object"
						},
						"ob_id":2,
						"mat":{
							"name":"material_atlas_00001",
							"type":"Material"
						},
						"type":1,
						"used":1,
						"layer":1
					},
					{
						"type":2
					},
					{
						"ob":{
							"name":"5_-violin_1_0_0",
							"type":"Object"
						},
						"ob_id":3,
						"type":0,
						"used":1
					},
					{
						"ob":{
							"name":"5_-violin_1_0_0",
							"type":"Object"
						},
						"ob_id":3,
						"mat":{
							"name":"material_atlas_00001",
							"type":"Material"
						},
						"type":1,
						"used":1,
						"layer":1
					},
					{
						"type":2
					}
				],
				"smc_save_path":"A:\\code\\Web\\threejs\\candid\\TestCandid\\ressource\\model\\musique\\"
			},
			"name":"Scene",
			"nodes":[
				0,
				1,
				2,
				3,
				4,
				5,
				6,
				7,
				8
			]
		}
	],
	"nodes":[
		{
			"mesh":0,
			"name":"7_universal-obj-801c (27)_1_0_0"
		},
		{
			"mesh":1,
			"name":"5_-guitar.1_1_0_0",
			"rotation":[
				0.17261280119419098,
				0,
				0.9849897623062134,
				1.6047519579842628e-07
			],
			"translation":[
				8.293638229370117,
				0,
				7.935162544250488
			]
		},
		{
			"mesh":2,
			"name":"5_-violin_1_0_0",
			"rotation":[
				0.6087613701820374,
				0,
				0.7933533787727356,
				3.467857112582351e-08
			],
			"translation":[
				4.659249305725098,
				-0.031290143728256226,
				6.156870365142822
			]
		},
		{
			"mesh":3,
			"name":"5_-violinRhand_1_0_0",
			"rotation":[
				0,
				0.4396434426307678,
				0,
				0.8981723785400391
			],
			"translation":[
				4.103988170623779,
				0,
				6.224547386169434
			]
		},
		{
			"camera":0,
			"name":"Camera",
			"rotation":[
				-0.0865650400519371,
				-0.8870918154716492,
				-0.18563933670520782,
				0.41365766525268555
			],
			"translation":[
				-1.0911753177642822,
				2.9547972679138184,
				1.7311961650848389
			]
		},
		{
			"camera":1,
			"name":"Camera.001",
			"rotation":[
				-0.11331365257501602,
				-0.8153809905052185,
				-0.17063261568546295,
				0.5414779782295227
			],
			"translation":[
				-1.7251770496368408,
				2.963200807571411,
				3.431565761566162
			]
		},
		{
			"extensions":{
				"KHR_lights_punctual":{
					"light":0
				}
			},
			"name":"Sun",
			"rotation":[
				-0.6478626132011414,
				-0.4969066381454468,
				0.10468648374080658,
				0.5678015947341919
			],
			"translation":[
				0,
				9.225601196289062,
				0
			]
		},
		{
			"extensions":{
				"KHR_lights_punctual":{
					"light":1
				}
			},
			"name":"Sun.001",
			"rotation":[
				-0.6246974468231201,
				0.3684820532798767,
				-0.07763051241636276,
				0.6840669512748718
			],
			"translation":[
				0,
				9.225601196289062,
				0
			]
		},
		{
			"extensions":{
				"KHR_lights_punctual":{
					"light":2
				}
			},
			"name":"Sun.002",
			"rotation":[
				-0.2790488004684448,
				-0.4347135126590729,
				0.3159208297729492,
				0.7958329319953918
			],
			"translation":[
				0,
				9.225601196289062,
				0
			]
		}
	],
	"cameras":[
		{
			"name":"Camera.001",
			"perspective":{
				"aspectRatio":1.7777777777777777,
				"yfov":0.39959652046304894,
				"zfar":1000,
				"znear":0.10000000149011612
			},
			"type":"perspective"
		},
		{
			"name":"Camera.003",
			"perspective":{
				"aspectRatio":1.7777777777777777,
				"yfov":0.39959652046304894,
				"zfar":1000,
				"znear":0.10000000149011612
			},
			"type":"perspective"
		}
	],
	"materials":[
		{
			"alphaCutoff":0.5,
			"alphaMode":"MASK",
			"extras":{
				"mmd_material":{}
			},
			"name":"material_atlas_00001",
			"pbrMetallicRoughness":{
				"baseColorTexture":{
					"index":0
				},
				"metallicFactor":0,
				"roughnessFactor":0.5
			}
		}
	],
	"meshes":[
		{
			"name":"7_universal-obj-801c (27)_1_0_0",
			"primitives":[
				{
					"attributes":{
						"COLOR_0":0,
						"POSITION":1,
						"NORMAL":2,
						"TEXCOORD_0":3,
						"TEXCOORD_1":4
					},
					"indices":5,
					"material":0
				}
			]
		},
		{
			"name":"5_-guitar.1_1_0_0",
			"primitives":[
				{
					"attributes":{
						"COLOR_0":6,
						"POSITION":7,
						"NORMAL":8,
						"TEXCOORD_0":9
					},
					"indices":10,
					"material":0
				}
			]
		},
		{
			"name":"5_-violin_1_0_0",
			"primitives":[
				{
					"attributes":{
						"COLOR_0":11,
						"POSITION":12,
						"NORMAL":13,
						"TEXCOORD_0":14
					},
					"indices":15,
					"material":0
				}
			]
		},
		{
			"name":"5_-violinRhand_1_0_0",
			"primitives":[
				{
					"attributes":{
						"COLOR_0":16,
						"POSITION":17,
						"NORMAL":18,
						"TEXCOORD_0":19
					},
					"indices":20,
					"material":0
				}
			]
		}
	],
	"textures":[
		{
			"sampler":0,
			"source":0
		}
	],
	"images":[
		{
			"mimeType":"image/png",
			"name":"Atlas_00001",
			"uri":"Atlas_00001.png"
		}
	],
	"accessors":[
		{
			"bufferView":0,
			"componentType":5123,
			"count":107493,
			"normalized":true,
			"type":"VEC4"
		},
		{
			"bufferView":1,
			"componentType":5126,
			"count":107493,
			"max":[
				76.80343627929688,
				18.36625862121582,
				69.47071838378906
			],
			"min":[
				-59.67353057861328,
				-9.138236999511719,
				-28.720516204833984
			],
			"type":"VEC3"
		},
		{
			"bufferView":2,
			"componentType":5126,
			"count":107493,
			"type":"VEC3"
		},
		{
			"bufferView":3,
			"componentType":5126,
			"count":107493,
			"type":"VEC2"
		},
		{
			"bufferView":4,
			"componentType":5126,
			"count":107493,
			"type":"VEC2"
		},
		{
			"bufferView":5,
			"componentType":5125,
			"count":237489,
			"type":"SCALAR"
		},
		{
			"bufferView":6,
			"componentType":5123,
			"count":2682,
			"normalized":true,
			"type":"VEC4"
		},
		{
			"bufferView":7,
			"componentType":5126,
			"count":2682,
			"max":[
				0.28485894203186035,
				0.026178836822509766,
				0.760323166847229
			],
			"min":[
				-0.2449856400489807,
				-0.02080392837524414,
				-0.8801295757293701
			],
			"type":"VEC3"
		},
		{
			"bufferView":8,
			"componentType":5126,
			"count":2682,
			"type":"VEC3"
		},
		{
			"bufferView":9,
			"componentType":5126,
			"count":2682,
			"type":"VEC2"
		},
		{
			"bufferView":10,
			"componentType":5123,
			"count":9426,
			"type":"SCALAR"
		},
		{
			"bufferView":11,
			"componentType":5123,
			"count":2103,
			"normalized":true,
			"type":"VEC4"
		},
		{
			"bufferView":12,
			"componentType":5126,
			"count":2103,
			"max":[
				0.17855703830718994,
				0.06252884864807129,
				0.5673952698707581
			],
			"min":[
				-0.17138361930847168,
				-0.09362232685089111,
				-0.5196206569671631
			],
			"type":"VEC3"
		},
		{
			"bufferView":13,
			"componentType":5126,
			"count":2103,
			"type":"VEC3"
		},
		{
			"bufferView":14,
			"componentType":5126,
			"count":2103,
			"type":"VEC2"
		},
		{
			"bufferView":15,
			"componentType":5123,
			"count":10212,
			"type":"SCALAR"
		},
		{
			"bufferView":16,
			"componentType":5123,
			"count":311,
			"normalized":true,
			"type":"VEC4"
		},
		{
			"bufferView":17,
			"componentType":5126,
			"count":311,
			"max":[
				0.02450871467590332,
				0.01246035099029541,
				0.8316793441772461
			],
			"min":[
				-0.03619205951690674,
				-0.012763023376464844,
				-0.42190980911254883
			],
			"type":"VEC3"
		},
		{
			"bufferView":18,
			"componentType":5126,
			"count":311,
			"type":"VEC3"
		},
		{
			"bufferView":19,
			"componentType":5126,
			"count":311,
			"type":"VEC2"
		},
		{
			"bufferView":20,
			"componentType":5123,
			"count":1032,
			"type":"SCALAR"
		}
	],
	"bufferViews":[
		{
			"buffer":0,
			"byteLength":859944,
			"byteOffset":0,
			"target":34962
		},
		{
			"buffer":0,
			"byteLength":1289916,
			"byteOffset":859944,
			"target":34962
		},
		{
			"buffer":0,
			"byteLength":1289916,
			"byteOffset":2149860,
			"target":34962
		},
		{
			"buffer":0,
			"byteLength":859944,
			"byteOffset":3439776,
			"target":34962
		},
		{
			"buffer":0,
			"byteLength":859944,
			"byteOffset":4299720,
			"target":34962
		},
		{
			"buffer":0,
			"byteLength":949956,
			"byteOffset":5159664,
			"target":34963
		},
		{
			"buffer":0,
			"byteLength":21456,
			"byteOffset":6109620,
			"target":34962
		},
		{
			"buffer":0,
			"byteLength":32184,
			"byteOffset":6131076,
			"target":34962
		},
		{
			"buffer":0,
			"byteLength":32184,
			"byteOffset":6163260,
			"target":34962
		},
		{
			"buffer":0,
			"byteLength":21456,
			"byteOffset":6195444,
			"target":34962
		},
		{
			"buffer":0,
			"byteLength":18852,
			"byteOffset":6216900,
			"target":34963
		},
		{
			"buffer":0,
			"byteLength":16824,
			"byteOffset":6235752,
			"target":34962
		},
		{
			"buffer":0,
			"byteLength":25236,
			"byteOffset":6252576,
			"target":34962
		},
		{
			"buffer":0,
			"byteLength":25236,
			"byteOffset":6277812,
			"target":34962
		},
		{
			"buffer":0,
			"byteLength":16824,
			"byteOffset":6303048,
			"target":34962
		},
		{
			"buffer":0,
			"byteLength":20424,
			"byteOffset":6319872,
			"target":34963
		},
		{
			"buffer":0,
			"byteLength":2488,
			"byteOffset":6340296,
			"target":34962
		},
		{
			"buffer":0,
			"byteLength":3732,
			"byteOffset":6342784,
			"target":34962
		},
		{
			"buffer":0,
			"byteLength":3732,
			"byteOffset":6346516,
			"target":34962
		},
		{
			"buffer":0,
			"byteLength":2488,
			"byteOffset":6350248,
			"target":34962
		},
		{
			"buffer":0,
			"byteLength":2064,
			"byteOffset":6352736,
			"target":34963
		}
	],
	"samplers":[
		{
			"magFilter":9729,
			"minFilter":9987
		}
	],
	"buffers":[
		{
			"byteLength":6354800,
			"uri":"scene.bin"
		}
	]
}
