{
	"asset":{
		"generator":"Khronos glTF Blender I/O v3.6.28",
		"version":"2.0"
	},
	"extensionsUsed":[
		"KHR_lights_punctual"
	],
	"extensionsRequired":[
		"KHR_lights_punctual"
	],
	"extensions":{
		"KHR_lights_punctual":{
			"lights":[
				{
					"color":[
						1,
						0.952713668346405,
						0.8941044807434082
					],
					"intensity":1,
					"type":"directional",
					"name":"Sun"
				}
			]
		}
	},
	"scene":0,
	"scenes":[
		{
			"extras":{
				"vs":{
					"export_list":[
						{
							"name":"batiment.dmx",
							"collection":{
								"name":"batiment",
								"type":"Collection"
							},
							"ob_type":"COLLECTION",
							"icon":"GROUP"
						},
						{
							"name":"sand.dmx",
							"collection":{
								"name":"sand",
								"type":"Collection"
							},
							"ob_type":"COLLECTION",
							"icon":"GROUP"
						}
					]
				},
				"smc_ob_data":[
					{
						"ob":{
							"name":"Sand Village_mesh.029",
							"type":"Object"
						},
						"ob_id":0,
						"type":0,
						"used":1
					},
					{
						"ob":{
							"name":"Sand Village_mesh.029",
							"type":"Object"
						},
						"ob_id":0,
						"mat":{
							"name":"material_atlas_00001_1",
							"type":"Material"
						},
						"type":1,
						"used":1,
						"layer":1
					},
					{
						"type":2
					},
					{
						"ob":{
							"name":"Sand Village_mesh.001",
							"type":"Object"
						},
						"ob_id":1,
						"type":0,
						"used":1
					},
					{
						"ob":{
							"name":"Sand Village_mesh.001",
							"type":"Object"
						},
						"ob_id":1,
						"mat":{
							"name":"material_atlas_00001_1",
							"type":"Material"
						},
						"type":1,
						"used":1,
						"layer":1
					},
					{
						"type":2
					},
					{
						"ob":{
							"name":"Sand Village_mesh.002",
							"type":"Object"
						},
						"ob_id":2,
						"type":0,
						"used":1
					},
					{
						"ob":{
							"name":"Sand Village_mesh.002",
							"type":"Object"
						},
						"ob_id":2,
						"mat":{
							"name":"material_atlas_00001_1",
							"type":"Material"
						},
						"type":1,
						"used":1,
						"layer":1
					},
					{
						"type":2
					},
					{
						"ob":{
							"name":"Sand Village_mesh.003",
							"type":"Object"
						},
						"ob_id":3,
						"type":0,
						"used":1
					},
					{
						"ob":{
							"name":"Sand Village_mesh.003",
							"type":"Object"
						},
						"ob_id":3,
						"mat":{
							"name":"material_atlas_00001_1",
							"type":"Material"
						},
						"type":1,
						"used":1,
						"layer":1
					},
					{
						"type":2
					},
					{
						"ob":{
							"name":"Sand Village_mesh.004",
							"type":"Object"
						},
						"ob_id":4,
						"type":0,
						"used":1
					},
					{
						"ob":{
							"name":"Sand Village_mesh.004",
							"type":"Object"
						},
						"ob_id":4,
						"mat":{
							"name":"material_atlas_00001_1",
							"type":"Material"
						},
						"type":1,
						"used":1,
						"layer":1
					},
					{
						"type":2
					},
					{
						"ob":{
							"name":"Sand Village_mesh.005",
							"type":"Object"
						},
						"ob_id":5,
						"type":0,
						"used":1
					},
					{
						"ob":{
							"name":"Sand Village_mesh.005",
							"type":"Object"
						},
						"ob_id":5,
						"mat":{
							"name":"material_atlas_00001_1",
							"type":"Material"
						},
						"type":1,
						"used":1,
						"layer":1
					},
					{
						"type":2
					},
					{
						"ob":{
							"name":"Sand Village_mesh.006",
							"type":"Object"
						},
						"ob_id":6,
						"type":0,
						"used":1
					},
					{
						"ob":{
							"name":"Sand Village_mesh.006",
							"type":"Object"
						},
						"ob_id":6,
						"mat":{
							"name":"material_atlas_00001_1",
							"type":"Material"
						},
						"type":1,
						"used":1,
						"layer":1
					},
					{
						"type":2
					},
					{
						"ob":{
							"name":"Sand Village_mesh.007",
							"type":"Object"
						},
						"ob_id":7,
						"type":0,
						"used":1
					},
					{
						"ob":{
							"name":"Sand Village_mesh.007",
							"type":"Object"
						},
						"ob_id":7,
						"mat":{
							"name":"material_atlas_00001_1",
							"type":"Material"
						},
						"type":1,
						"used":1,
						"layer":1
					},
					{
						"type":2
					},
					{
						"ob":{
							"name":"Sand Village_mesh.008",
							"type":"Object"
						},
						"ob_id":8,
						"type":0,
						"used":1
					},
					{
						"ob":{
							"name":"Sand Village_mesh.008",
							"type":"Object"
						},
						"ob_id":8,
						"mat":{
							"name":"material_atlas_00001_1",
							"type":"Material"
						},
						"type":1,
						"used":1,
						"layer":1
					},
					{
						"type":2
					},
					{
						"ob":{
							"name":"Sand Village_mesh.009",
							"type":"Object"
						},
						"ob_id":9,
						"type":0,
						"used":1
					},
					{
						"ob":{
							"name":"Sand Village_mesh.009",
							"type":"Object"
						},
						"ob_id":9,
						"mat":{
							"name":"material_atlas_00001_1",
							"type":"Material"
						},
						"type":1,
						"used":1,
						"layer":1
					},
					{
						"type":2
					},
					{
						"ob":{
							"name":"Sand Village_mesh.010",
							"type":"Object"
						},
						"ob_id":10,
						"type":0,
						"used":1
					},
					{
						"ob":{
							"name":"Sand Village_mesh.010",
							"type":"Object"
						},
						"ob_id":10,
						"mat":{
							"name":"material_atlas_00001_1",
							"type":"Material"
						},
						"type":1,
						"used":1,
						"layer":1
					},
					{
						"type":2
					},
					{
						"ob":{
							"name":"Sand Village_mesh.011",
							"type":"Object"
						},
						"ob_id":11,
						"type":0,
						"used":1
					},
					{
						"ob":{
							"name":"Sand Village_mesh.011",
							"type":"Object"
						},
						"ob_id":11,
						"mat":{
							"name":"material_atlas_00001_1",
							"type":"Material"
						},
						"type":1,
						"used":1,
						"layer":1
					},
					{
						"type":2
					},
					{
						"ob":{
							"name":"Sand Village_mesh.012",
							"type":"Object"
						},
						"ob_id":12,
						"type":0,
						"used":1
					},
					{
						"ob":{
							"name":"Sand Village_mesh.012",
							"type":"Object"
						},
						"ob_id":12,
						"mat":{
							"name":"material_atlas_00001_1",
							"type":"Material"
						},
						"type":1,
						"used":1,
						"layer":1
					},
					{
						"type":2
					},
					{
						"ob":{
							"name":"Sand Village_mesh.013",
							"type":"Object"
						},
						"ob_id":13,
						"type":0,
						"used":1
					},
					{
						"ob":{
							"name":"Sand Village_mesh.013",
							"type":"Object"
						},
						"ob_id":13,
						"mat":{
							"name":"material_atlas_00001_1",
							"type":"Material"
						},
						"type":1,
						"used":1,
						"layer":1
					},
					{
						"type":2
					},
					{
						"ob":{
							"name":"Sand Village_mesh.014",
							"type":"Object"
						},
						"ob_id":14,
						"type":0,
						"used":1
					},
					{
						"ob":{
							"name":"Sand Village_mesh.014",
							"type":"Object"
						},
						"ob_id":14,
						"mat":{
							"name":"material_atlas_00001_1",
							"type":"Material"
						},
						"type":1,
						"used":1,
						"layer":1
					},
					{
						"type":2
					},
					{
						"ob":{
							"name":"Sand Village_mesh.015",
							"type":"Object"
						},
						"ob_id":15,
						"type":0,
						"used":1
					},
					{
						"ob":{
							"name":"Sand Village_mesh.015",
							"type":"Object"
						},
						"ob_id":15,
						"mat":{
							"name":"material_atlas_00001_1",
							"type":"Material"
						},
						"type":1,
						"used":1,
						"layer":1
					},
					{
						"type":2
					},
					{
						"ob":{
							"name":"Sand Village_mesh.016",
							"type":"Object"
						},
						"ob_id":16,
						"type":0,
						"used":1
					},
					{
						"ob":{
							"name":"Sand Village_mesh.016",
							"type":"Object"
						},
						"ob_id":16,
						"mat":{
							"name":"material_atlas_00001_1",
							"type":"Material"
						},
						"type":1,
						"used":1,
						"layer":1
					},
					{
						"type":2
					},
					{
						"ob":{
							"name":"Sand Village_mesh.017",
							"type":"Object"
						},
						"ob_id":17,
						"type":0,
						"used":1
					},
					{
						"ob":{
							"name":"Sand Village_mesh.017",
							"type":"Object"
						},
						"ob_id":17,
						"mat":{
							"name":"material_atlas_00001_1",
							"type":"Material"
						},
						"type":1,
						"used":1,
						"layer":1
					},
					{
						"type":2
					},
					{
						"ob":{
							"name":"Sand Village_mesh.018",
							"type":"Object"
						},
						"ob_id":18,
						"type":0,
						"used":1
					},
					{
						"ob":{
							"name":"Sand Village_mesh.018",
							"type":"Object"
						},
						"ob_id":18,
						"mat":{
							"name":"material_atlas_00001_1",
							"type":"Material"
						},
						"type":1,
						"used":1,
						"layer":1
					},
					{
						"type":2
					},
					{
						"ob":{
							"name":"Sand Village_mesh.019",
							"type":"Object"
						},
						"ob_id":19,
						"type":0,
						"used":1
					},
					{
						"ob":{
							"name":"Sand Village_mesh.019",
							"type":"Object"
						},
						"ob_id":19,
						"mat":{
							"name":"material_atlas_00001_1",
							"type":"Material"
						},
						"type":1,
						"used":1,
						"layer":1
					},
					{
						"type":2
					},
					{
						"ob":{
							"name":"Sand Village_mesh.020",
							"type":"Object"
						},
						"ob_id":20,
						"type":0,
						"used":1
					},
					{
						"ob":{
							"name":"Sand Village_mesh.020",
							"type":"Object"
						},
						"ob_id":20,
						"mat":{
							"name":"material_atlas_00001_1",
							"type":"Material"
						},
						"type":1,
						"used":1,
						"layer":1
					},
					{
						"type":2
					},
					{
						"ob":{
							"name":"Sand Village_mesh.021",
							"type":"Object"
						},
						"ob_id":21,
						"type":0,
						"used":1
					},
					{
						"ob":{
							"name":"Sand Village_mesh.021",
							"type":"Object"
						},
						"ob_id":21,
						"mat":{
							"name":"material_atlas_00001_1",
							"type":"Material"
						},
						"type":1,
						"used":1,
						"layer":1
					},
					{
						"type":2
					},
					{
						"ob":{
							"name":"Sand Village_mesh.022",
							"type":"Object"
						},
						"ob_id":22,
						"type":0,
						"used":1
					},
					{
						"ob":{
							"name":"Sand Village_mesh.022",
							"type":"Object"
						},
						"ob_id":22,
						"mat":{
							"name":"material_atlas_00001_1",
							"type":"Material"
						},
						"type":1,
						"used":1,
						"layer":1
					},
					{
						"type":2
					},
					{
						"ob":{
							"name":"Sand Village_mesh.023",
							"type":"Object"
						},
						"ob_id":23,
						"type":0,
						"used":1
					},
					{
						"ob":{
							"name":"Sand Village_mesh.023",
							"type":"Object"
						},
						"ob_id":23,
						"mat":{
							"name":"material_atlas_00001_1",
							"type":"Material"
						},
						"type":1,
						"used":1,
						"layer":1
					},
					{
						"type":2
					},
					{
						"ob":{
							"name":"konoha",
							"type":"Object"
						},
						"ob_id":24,
						"type":0,
						"used":0
					},
					{
						"ob":{
							"name":"konoha",
							"type":"Object"
						},
						"ob_id":24,
						"mat":{
							"name":"konoha",
							"type":"Material"
						},
						"type":1,
						"used":0,
						"layer":1
					},
					{
						"type":2
					}
				],
				"embed_textures":1,
				"show_mmd_tabs":1,
				"optimize_mode":0,
				"smc_size":0,
				"smc_gaps":0,
				"smc_save_path":"A:\\code\\Web\\threejs\\candid\\TestCandid\\ressource\\model\\introduction\\atlas\\"
			},
			"name":"Scene",
			"nodes":[
				0,
				1,
				2,
				3,
				4,
				5,
				6
			]
		}
	],
	"nodes":[
		{
			"mesh":0,
			"name":"Sand Village_mesh.001"
		},
		{
			"mesh":1,
			"name":"konoha",
			"rotation":[
				0,
				-1,
				0,
				1.6292068494294654e-07
			]
		},
		{
			"camera":0,
			"name":"Camera",
			"rotation":[
				-0.006499983835965395,
				0.9992294311523438,
				0.037053413689136505,
				0.011202003806829453
			],
			"translation":[
				20.809144973754883,
				3.3482961654663086,
				-40.09744644165039
			]
		},
		{
			"camera":1,
			"name":"Camera.001",
			"rotation":[
				-0.006499983835965395,
				0.9992294311523438,
				0.037053413689136505,
				0.011202003806829453
			],
			"translation":[
				16.813865661621094,
				3.3482961654663086,
				-40.09744644165039
			]
		},
		{
			"camera":2,
			"name":"Camera.002",
			"rotation":[
				-0.006499983835965395,
				0.9992294311523438,
				0.037053413689136505,
				0.011202003806829453
			],
			"translation":[
				1.5333337783813477,
				3.3482961654663086,
				-28.17599105834961
			]
		},
		{
			"camera":3,
			"name":"Camera.003",
			"rotation":[
				-0.006499983835965395,
				0.9992294311523438,
				0.037053413689136505,
				0.011202003806829453
			],
			"translation":[
				-16.4718017578125,
				3.3482961654663086,
				-28.17599105834961
			]
		},
		{
			"extensions":{
				"KHR_lights_punctual":{
					"light":0
				}
			},
			"name":"Sun",
			"rotation":[
				-0.7071068286895752,
				0,
				0,
				0.7071068286895752
			],
			"translation":[
				0,
				73.21471405029297,
				0
			]
		}
	],
	"cameras":[
		{
			"name":"Camera",
			"perspective":{
				"aspectRatio":1.7777777777777777,
				"yfov":0.39959652046304894,
				"zfar":1000,
				"znear":0.10000000149011612
			},
			"type":"perspective"
		},
		{
			"name":"Camera.001",
			"perspective":{
				"aspectRatio":1.7777777777777777,
				"yfov":0.39959652046304894,
				"zfar":1000,
				"znear":0.10000000149011612
			},
			"type":"perspective"
		},
		{
			"name":"Camera.002",
			"perspective":{
				"aspectRatio":1.7777777777777777,
				"yfov":0.39959652046304894,
				"zfar":1000,
				"znear":0.10000000149011612
			},
			"type":"perspective"
		},
		{
			"name":"Camera.003",
			"perspective":{
				"aspectRatio":1.7777777777777777,
				"yfov":0.39959652046304894,
				"zfar":1000,
				"znear":0.10000000149011612
			},
			"type":"perspective"
		}
	],
	"materials":[
		{
			"alphaCutoff":0.5,
			"alphaMode":"MASK",
			"extras":{
				"mmd_material":{}
			},
			"name":"material_atlas_00001_1",
			"pbrMetallicRoughness":{
				"baseColorTexture":{
					"index":0
				},
				"metallicFactor":0,
				"roughnessFactor":0.5
			}
		},
		{
			"alphaCutoff":0.5,
			"alphaMode":"MASK",
			"extras":{
				"mmd_material":{}
			},
			"name":"konoha",
			"pbrMetallicRoughness":{
				"baseColorTexture":{
					"index":1
				},
				"metallicFactor":0,
				"roughnessFactor":0.5
			}
		}
	],
	"meshes":[
		{
			"name":"Sand Village.001",
			"primitives":[
				{
					"attributes":{
						"POSITION":0,
						"NORMAL":1,
						"TEXCOORD_0":2
					},
					"indices":3,
					"material":0
				}
			]
		},
		{
			"name":"7_clouds_1.0_0_0.001",
			"primitives":[
				{
					"attributes":{
						"COLOR_0":4,
						"POSITION":5,
						"NORMAL":6,
						"TEXCOORD_0":7
					},
					"indices":8,
					"material":1
				}
			]
		}
	],
	"textures":[
		{
			"sampler":0,
			"source":0
		},
		{
			"sampler":0,
			"source":1
		}
	],
	"images":[
		{
			"mimeType":"image/png",
			"name":"Atlas_00001",
			"uri":"Atlas_00001.png"
		},
		{
			"mimeType":"image/png",
			"name":"Atlas_00001",
			"uri":"Atlas_00001-1.png"
		}
	],
	"accessors":[
		{
			"bufferView":0,
			"componentType":5126,
			"count":43069,
			"max":[
				1564.49658203125,
				650.396484375,
				1564.49658203125
			],
			"min":[
				-1564.49658203125,
				-14.460053443908691,
				-1564.4967041015625
			],
			"type":"VEC3"
		},
		{
			"bufferView":1,
			"componentType":5126,
			"count":43069,
			"type":"VEC3"
		},
		{
			"bufferView":2,
			"componentType":5126,
			"count":43069,
			"type":"VEC2"
		},
		{
			"bufferView":3,
			"componentType":5123,
			"count":160749,
			"type":"SCALAR"
		},
		{
			"bufferView":4,
			"componentType":5123,
			"count":11074,
			"normalized":true,
			"type":"VEC4"
		},
		{
			"bufferView":5,
			"componentType":5126,
			"count":11074,
			"max":[
				77.72826385498047,
				11.518631935119629,
				-55.857601165771484
			],
			"min":[
				-31.964359283447266,
				-7.460519790649414,
				-85.73301696777344
			],
			"type":"VEC3"
		},
		{
			"bufferView":6,
			"componentType":5126,
			"count":11074,
			"type":"VEC3"
		},
		{
			"bufferView":7,
			"componentType":5126,
			"count":11074,
			"type":"VEC2"
		},
		{
			"bufferView":8,
			"componentType":5123,
			"count":18987,
			"type":"SCALAR"
		}
	],
	"bufferViews":[
		{
			"buffer":0,
			"byteLength":516828,
			"byteOffset":0,
			"target":34962
		},
		{
			"buffer":0,
			"byteLength":516828,
			"byteOffset":516828,
			"target":34962
		},
		{
			"buffer":0,
			"byteLength":344552,
			"byteOffset":1033656,
			"target":34962
		},
		{
			"buffer":0,
			"byteLength":321498,
			"byteOffset":1378208,
			"target":34963
		},
		{
			"buffer":0,
			"byteLength":88592,
			"byteOffset":1699708,
			"target":34962
		},
		{
			"buffer":0,
			"byteLength":132888,
			"byteOffset":1788300,
			"target":34962
		},
		{
			"buffer":0,
			"byteLength":132888,
			"byteOffset":1921188,
			"target":34962
		},
		{
			"buffer":0,
			"byteLength":88592,
			"byteOffset":2054076,
			"target":34962
		},
		{
			"buffer":0,
			"byteLength":37974,
			"byteOffset":2142668,
			"target":34963
		}
	],
	"samplers":[
		{
			"magFilter":9729,
			"minFilter":9987
		}
	],
	"buffers":[
		{
			"byteLength":2180644,
			"uri":"scene.bin"
		}
	]
}
